<?xml version="1.0" encoding="UTF-8" standalone="no"?>
<svg
   xml:space="preserve"
   width="40"
   height="40"
   viewBox="0 0 6.35 6.35"
   version="1.1"
   id="svg20"
   sodipodi:docname="comm-menu.svg"
   inkscape:version="1.3.2 (091e20ef0f, 2023-11-25, custom)"
   xmlns:inkscape="http://www.inkscape.org/namespaces/inkscape"
   xmlns:sodipodi="http://sodipodi.sourceforge.net/DTD/sodipodi-0.dtd"
   xmlns="http://www.w3.org/2000/svg"
   xmlns:svg="http://www.w3.org/2000/svg"><sodipodi:namedview
     id="namedview20"
     pagecolor="#ffffff"
     bordercolor="#666666"
     borderopacity="1.0"
     inkscape:showpageshadow="2"
     inkscape:pageopacity="0.0"
     inkscape:pagecheckerboard="0"
     inkscape:deskcolor="#d1d1d1"
     inkscape:zoom="1.3461346"
     inkscape:cx="123.31605"
     inkscape:cy="83.572624"
     inkscape:window-width="1920"
     inkscape:window-height="1048"
     inkscape:window-x="0"
     inkscape:window-y="0"
     inkscape:window-maximized="1"
     inkscape:current-layer="svg20" /><defs
     id="defs8"><linearGradient
       id="b"
       x1="70.74"
       x2="304.39"
       y1="207.69"
       y2="456.44"
       gradientTransform="matrix(0.00436582,1.5544442e-5,1.5544442e-5,-0.00436582,2.0892366,5.9323849)"
       gradientUnits="userSpaceOnUse"
       spreadMethod="pad"><stop
         offset="0"
         style="stop-opacity:1;stop-color:#2d85c6"
         id="stop1" /><stop
         offset="1"
         style="stop-opacity:1;stop-color:#04bacc"
         id="stop2" /></linearGradient><linearGradient
       id="c"
       x1="146.39"
       x2="380.04"
       y1="136.63"
       y2="385.38"
       gradientTransform="matrix(0.00436582,1.5544442e-5,-1.5544442e-5,0.00436582,2.0241317,3.6197625)"
       gradientUnits="userSpaceOnUse"
       spreadMethod="pad"><stop
         offset="0"
         style="stop-opacity:1;stop-color:#2d85c6"
         id="stop3" /><stop
         offset="1"
         style="stop-opacity:1;stop-color:#04bacc"
         id="stop4" /></linearGradient><linearGradient
       id="d"
       x1="127.32"
       x2="360.97"
       y1="154.54"
       y2="403.29"
       gradientTransform="matrix(0.00436582,1.5544442e-5,-1.5544442e-5,0.00436582,2.0241317,3.6197625)"
       gradientUnits="userSpaceOnUse"
       spreadMethod="pad"><stop
         offset="0"
         style="stop-opacity:1;stop-color:#2d85c6"
         id="stop5" /><stop
         offset="1"
         style="stop-opacity:1;stop-color:#04bacc"
         id="stop6" /></linearGradient><radialGradient
       id="a"
       cx="0"
       cy="0"
       r="1"
       fx="0"
       fy="0"
       gradientTransform="matrix(0 16.5 -16.5 0 9 .75)"
       gradientUnits="userSpaceOnUse"
       spreadMethod="pad"><stop
         offset="0"
         style="stop-opacity:1;stop-color:#002a43"
         id="stop7" /><stop
         offset="1"
         style="stop-opacity:1;stop-color:#2c2d3d"
         id="stop8" /></radialGradient></defs><path
     d="M7.195.836c.09 0 .176-.012.258-.035a23.86 23.86 0 0 1 3.231.008 10.26 10.26 0 0 1 2.836.636c1.519.625 2.558 1.711 3.121 3.254.32.93.507 1.887.566 2.867a21.172 21.172 0 0 1-.086 3.692 8.866 8.866 0 0 1-.672 2.492c-.637 1.383-1.672 2.336-3.101 2.859a11.714 11.714 0 0 1-3.575.618 15.998 15.998 0 0 1-4.089-.309c-2.485-.551-4.016-2.066-4.594-4.543a14.244 14.244 0 0 1-.336-3.383 13.877 13.877 0 0 1 .387-3.59c.609-2.312 2.078-3.746 4.406-4.3A10.246 10.246 0 0 1 7.199.836Z"
     style="fill:url(#a);fill-rule:evenodd;stroke:none"
     transform="rotate(.204)scale(.35278)"
     id="path8" /><path
     d="M 4.6598701,1.0022359 C 4.5003969,1.0016681 4.3466199,1.0601855 4.2271286,1.1660768 A 1.0808807,1.0808807 0 0 1 4.0756974,1.9481474 0.65266291,0.65266291 0 1 0 4.6598701,1.0022359 Z M 5.0571442,2.367065 A 0.85052905,0.85052905 0 0 1 4.6433078,2.4743693 0.8219812,0.8219812 0 0 1 4.2400779,2.3676012 C 4.0844862,2.3827978 3.9283218,2.420634 3.8201792,2.5186905 3.5308257,2.7770535 3.4216861,3.1551725 3.4392276,3.6198788 3.7054589,3.9112291 4.1299182,3.999861 4.637439,3.9844408 5.1448371,4.0034747 5.5708996,3.9183631 5.8387066,3.6289143 5.8600507,3.1638543 5.7595251,2.7815434 5.468561,2.5245596 5.3591349,2.4301584 5.2086808,2.3848317 5.0571442,2.367065 Z"
     style="fill:#0bb1cb;fill-opacity:1;fill-rule:nonzero;stroke:none;stroke-width:0.492204"
     id="path9" /><path
     d="M 1.6707323,0.99159296 A 0.65266291,0.65266291 0 1 0 2.2555901,1.9269008 1.0759586,1.0759586 0 0 1 2.0976242,1.3647296 c 2.278e-4,-0.063986 0.00637,-0.1294278 0.020375,-0.1928727 A 0.65118631,0.65118631 0 0 0 1.6707323,0.99159296 Z M 2.0596388,2.3563924 A 0.83428631,0.83428631 0 0 1 1.6482636,2.4637055 C 1.5055253,2.4631972 1.3678368,2.4267759 1.2450337,2.3569374 1.0884576,2.3721305 0.93229303,2.4099667 0.82218179,2.5080162 0.53282831,2.7663792 0.42614962,3.144507 0.44418332,3.609215 0.7099224,3.9005635 1.1353662,3.989199 1.642887,3.9737787 2.1497929,3.9928109 2.5753632,3.9076976 2.8436623,3.6182504 2.8645143,3.1531887 2.7639885,2.7708778 2.4705636,2.5138852 2.3611374,2.4194839 2.2126521,2.3741644 2.0591466,2.3563907 Z"
     style="fill:#2d85c6;fill-opacity:1;fill-rule:nonzero;stroke:none;stroke-width:0.492204"
     id="path10" /><path
     d="m 3.7021846,2.2042421 a 1.1552035,1.1552035 0 0 1 -1.0479244,0.00415 C 2.4021918,2.224716 2.1386785,2.2759518 1.9614105,2.4347958 1.5367558,2.815729 1.3792486,3.3689016 1.403889,4.051681 1.794661,4.4778473 2.4168433,4.6070522 3.161148,4.5826308 3.9052597,4.6123516 4.5303152,4.4875876 4.9221432,4.0642076 4.9536137,3.3816281 4.8054902,2.8199842 4.3761495,2.4433934 4.1999978,2.2887053 3.9521475,2.226297 3.7021846,2.2042421 Z"
     style="fill:#002a43;fill-opacity:1;fill-rule:nonzero;stroke:none;stroke-width:0.492204"
     id="path11" /><path
     d="m 3.1777271,0.47915644 a 0.8805536,0.8805536 0 1 0 -0.00578,1.76109776 0.88055357,0.88055357 0 0 0 0.00627,-1.76109602 z m 0.475831,1.83467476 a 1.0794041,1.0794041 0 0 1 -0.9534217,0.00448 C 2.4717076,2.3307882 2.2323261,2.3781721 2.0703637,2.5237811 1.6847226,2.8684298 1.5426525,3.3714522 1.5655501,3.9907306 1.9195437,4.3783738 2.4866415,4.4955695 3.16153,4.4753309 3.838226,4.5003818 4.403683,4.3872187 4.7609202,4.0021077 4.7882271,3.383008 4.6546926,2.8711291 4.265581,2.5315971 4.1046402,2.3902527 3.8804015,2.3318661 3.6535581,2.3138312 Z"
     style="fill:#2a92c9;fill-opacity:1;fill-rule:nonzero;stroke:none;stroke-width:0.492204"
     id="path12" /><path
     d="M 4.3984644,4.7470037 A 1.260043,1.260043 0 0 1 3.1329551,6.0035332 1.260043,1.260043 0 0 1 1.8764255,4.738024 a 1.2610275,1.2610275 0 1 1 2.5220389,0.00898 z"
     style="fill:#002a43;fill-opacity:1;fill-rule:nonzero;stroke:none;stroke-width:0.492204"
     id="path13" /><path
     d="m 4.2350273,4.7538049 a 1.0951549,1.0951549 0 1 1 -2.1903006,-0.00632 1.0951549,1.0951549 0 0 1 2.1903006,0.00632 z"
     style="fill:#16171c;fill-opacity:1;fill-rule:nonzero;stroke:#000000;stroke-width:0.0429211;stroke-linecap:butt;stroke-linejoin:miter;stroke-miterlimit:10;stroke-dasharray:none;stroke-opacity:1"
     id="path14" /><path
     d="M 4.0516978,4.4031926 A 0.21361667,0.21361667 0 0 0 3.900326,4.3391589 c -0.021172,0.0019 -0.044292,-0.00213 -0.063522,0.00765 a 0.32436264,0.32436264 0 0 0 -0.1543867,0.091493 c -0.013345,0.015703 -0.028658,0.030907 -0.042002,0.046118 -0.011888,0.021123 -0.027215,0.040264 -0.037134,0.061394 A 0.48580566,0.48580566 0 0 0 3.5488993,4.751363 c 0.00188,0.027078 0.00178,0.053657 0.00561,0.082711 0.00733,0.017254 0.00328,0.04431 0.022943,0.053733 0.015245,0.00399 0.02856,-0.00334 0.040393,-0.00921 0.032568,-0.023018 0.059735,-0.049993 0.086423,-0.080414 0.031105,-0.026961 0.05633,-0.061325 0.084981,-0.090264 C 3.8065233,4.694691 3.8184043,4.675537 3.8356733,4.663786 3.8663053,4.631409 3.9013483,4.604463 3.937859,4.579983 A 0.18556102,0.18556102 0 0 1 4.033928,4.555222 c 0.040347,0.00408 0.078658,0.026859 0.1016732,0.059919 0.024987,0.032575 0.044053,0.069066 0.055727,0.1079916 A 0.98047098,0.98047098 0 0 0 4.1609102,4.5576424 c -0.017159,-0.019257 -0.022969,-0.046349 -0.038152,-0.067568 -0.021054,-0.031084 -0.042103,-0.063645 -0.071061,-0.086882 z"
     style="fill:#2c2d3d;fill-opacity:1;fill-rule:nonzero;stroke:none;stroke-width:0.492204"
     id="path15" /><path
     d="m 2.24953,4.5966123 c 0.00776,0.033006 0.00763,0.069428 0.018826,0.1039222 a 0.24511775,0.24511775 0 0 0 0.026824,0.069497 c 0.00784,0.011344 0.013193,0.027119 0.026941,0.03652 0.01324,0.013829 0.030455,0.017335 0.047668,0.021335 L 2.41019,4.8167055 a 0.34946506,0.34946506 0 0 0 0.077543,-0.075031 c 0.021226,-0.017152 0.040504,-0.040216 0.065169,-0.055388 0.036997,-0.023002 0.079395,-0.042047 0.1231729,-0.034016 a 0.36078576,0.36078576 0 0 1 0.1651675,0.060145 c 0.023079,0.015341 0.048127,0.030688 0.067248,0.051921 a 0.35094167,0.35094167 0 0 1 0.089901,0.1868667 c 0.00387,0.021179 0.0092,0.042363 0.00372,0.063508 -3.084e-4,0.086628 -0.027674,0.1692208 -0.06437,0.2458745 -0.021287,0.034379 -0.040615,0.071225 -0.067795,0.1016453 -0.011379,0.015218 -0.021275,0.030933 -0.036573,0.0422 A 0.43461641,0.43461641 0 0 1 2.6020565,5.5345381 l -0.088616,0.0051 A 0.22493737,0.22493737 0 0 1 2.4499943,5.5261215 1.0134487,1.0134487 0 0 0 4.0988425,5.2627547 l 0.00603,-0.034433 c 0.00205,-0.023126 0.00557,-0.044279 0.00417,-0.065448 0.00553,-0.034435 -0.00172,-0.068915 -0.0016,-0.1038617 -0.00776,-0.034482 -0.0096,-0.068943 -0.020795,-0.1039292 -0.00582,-0.023155 -0.011647,-0.047786 -0.024857,-0.068997 -0.0098,-0.013817 -0.015155,-0.029094 -0.026939,-0.037011 -0.013242,-0.013337 -0.032424,-0.017342 -0.049636,-0.021342 a 0.7417519,0.7417519 0 0 0 -0.038433,0.011676 0.36078576,0.36078576 0 0 0 -0.079503,0.072563 c -0.021233,0.019121 -0.040511,0.042186 -0.065177,0.057849 -0.035027,0.022517 -0.079393,0.041555 -0.1216965,0.034021 -0.059557,-0.00218 -0.1150729,-0.031421 -0.1666524,-0.060153 -0.023077,-0.015833 -0.048125,-0.03118 -0.065277,-0.052406 a 0.32190162,0.32190162 0 0 1 -0.089895,-0.186866 c -0.00387,-0.021179 -0.0092,-0.042363 -0.00372,-0.063508 a 0.58670753,0.58670753 0 0 1 0.062401,-0.2458815 c 0.021287,-0.034379 0.04062,-0.072702 0.067794,-0.1016453 0.011867,-0.015217 0.023242,-0.030434 0.038541,-0.0417 A 0.43461641,0.43461641 0 0 1 3.7549151,4.1215778 l 0.088617,-0.00559 c 0.028541,0.00207 0.055583,0.01004 0.082621,0.01949 A 1.0085266,1.0085266 0 0 0 3.1870258,3.8119261 C 2.7676703,3.810433 2.4074662,4.0611607 2.2521209,4.4218879 c -7e-6,0.00197 -0.00198,0.00392 -0.00199,0.0059 -0.00205,0.021158 -0.00557,0.044279 -0.0022,0.065456 -0.00553,0.034435 -2.454e-4,0.068908 0.0016,0.103369 z M 3.2926809,4.827234 c 0.020877,0.080796 0.076748,0.1484277 0.1361064,0.2042584 0.028423,0.035048 0.068694,0.060295 0.097612,0.094852 -0.044299,-1.578e-4 -0.090543,-0.00623 -0.1343165,-0.015737 A 0.44298388,0.44298388 0 0 1 3.2362472,5.0559095 c -0.02701,-0.017323 -0.05551,-0.030714 -0.078561,-0.05393 A 0.41148281,0.41148281 0 0 1 3.0640525,4.8958207 0.32387043,0.32387043 0 0 1 3.0084879,4.7420542 0.15258333,0.15258333 0 0 1 3.0244522,4.6820614 c 0.022792,-0.042249 0.071108,-0.064718 0.119351,-0.066515 0.024596,0.00403 0.049694,0.00559 0.070809,0.019448 0.034906,0.011449 0.055961,0.042529 0.067165,0.075054 0.0038,0.038405 0.00169,0.078759 0.010901,0.1171841 z M 2.919607,4.4070371 a 0.19195968,0.19195968 0 0 1 0.1002116,-0.082334 0.16045861,0.16045861 0 0 1 0.06748,-0.013542 0.1712871,0.1712871 0 0 1 0.1170475,0.027488 c 0.017173,0.01532 0.038281,0.031146 0.046069,0.055784 a 0.09893307,0.09893307 0 0 1 -0.00622,0.086607 0.18211559,0.18211559 0 0 1 -0.082985,0.082395 0.19983495,0.19983495 0 0 1 -0.082772,0.022839 0.1934363,0.1934363 0 0 1 -0.09397,-0.011655 c -0.036859,-0.015882 -0.069243,-0.044546 -0.07895,-0.082972 -0.011216,-0.02908 2.067e-4,-0.058079 0.014083,-0.08461 z"
     style="fill:#2c2d3d;fill-opacity:1;fill-rule:nonzero;stroke:none;stroke-width:0.492204"
     id="path16" /><path
     d="m 2.2193999,5.0409683 a 0.387857,0.387857 0 0 1 -0.040106,-0.071513 c 0.00717,0.057613 0.020752,0.1157426 0.039751,0.1714297 0.00391,0.00788 0.00733,0.017254 0.0132,0.025149 0.021056,0.030591 0.042103,0.063644 0.072539,0.086395 a 0.21558549,0.21558549 0 0 0 0.1518642,0.064035 c 0.021171,-0.0019 0.042322,0.00212 0.063521,-0.00716 a 0.32485484,0.32485484 0 0 0 0.1538945,-0.091984 c 0.013836,-0.01521 0.029148,-0.030413 0.041018,-0.046121 0.01139,-0.020632 0.026722,-0.040265 0.03664,-0.060904 a 0.48826668,0.48826668 0 0 0 0.05635,-0.205542 l -0.00561,-0.082711 c -0.00733,-0.017745 -0.00379,-0.044312 -0.024417,-0.05423 -0.013768,-0.00398 -0.027085,0.00384 -0.040396,0.0097 a 0.45282797,0.45282797 0 0 0 -0.084946,0.08042 c -0.033072,0.026461 -0.05633,0.061325 -0.086948,0.089764 -0.015307,0.013727 -0.027188,0.032881 -0.044456,0.04414 a 0.61033334,0.61033334 0 0 1 -0.1041607,0.084292 0.18506882,0.18506882 0 0 1 -0.096069,0.024761 0.14963011,0.14963011 0 0 1 -0.1016732,-0.059919 z"
     style="fill:#2c2d3d;fill-opacity:1;fill-rule:nonzero;stroke:none;stroke-width:0.492204"
     id="path17" /><path
     d="M 3.028555,4.497499 A 0.16931829,0.16931829 0 0 0 3.113294,4.475159 0.17227151,0.17227151 0 0 0 3.194305,4.394233 0.10090189,0.10090189 0 0 0 3.200525,4.30615 C 3.192735,4.282988 3.171622,4.267655 3.154456,4.250366 a 0.16833387,0.16833387 0 0 0 -0.1170487,-0.027486 0.16636506,0.16636506 0 0 0 -0.067479,0.013049 0.2057414,0.2057414 0 0 0 -0.1002185,0.084303 c -0.011414,0.025062 -0.025293,0.05356 -0.013584,0.082642 0.00921,0.038425 0.042089,0.067582 0.078458,0.08297 0.030481,0.00996 0.061464,0.017446 0.09397,0.011655 z"
     style="fill:url(#b);stroke:none;stroke-width:0.492204"
     id="path18" /><path
     d="M 3.3788894,4.9451786 C 3.3195399,4.8868867 3.2641595,4.8197493 3.2432752,4.7409218 3.2335697,4.7020029 3.2356822,4.6616494 3.2318882,4.6212749 A 0.11025377,0.11025377 0 0 0 3.1671841,4.546229 c -0.023093,-0.011403 -0.048189,-0.013461 -0.073277,-0.017488 a 0.1368328,0.1368328 0 0 0 -0.1193458,0.065038 0.16636506,0.16636506 0 0 0 -0.01547,0.059502 0.33469893,0.33469893 0 0 0 0.055072,0.1537648 0.46562527,0.46562527 0 0 0 0.095596,0.1081338 c 0.021089,0.02124 0.050081,0.034633 0.07709,0.052448 0.047648,0.026749 0.099754,0.046131 0.1553376,0.056173 a 1.1320699,1.1320699 0 0 0 0.1362852,0.015744 c -0.028418,-0.036524 -0.070665,-0.059809 -0.099583,-0.094366 z"
     style="fill:url(#c);stroke:none;stroke-width:0.492204"
     id="path19" /><path
     d="m 3.141388,3.6350611 a 1.1064753,1.1064753 0 1 0 -0.00787,2.2129366 1.1064753,1.1064753 0 1 0 0.00787,-2.2129366 z m -0.8860104,1.531056 c -0.030926,-0.023244 -0.051974,-0.056297 -0.073029,-0.086889 -0.00341,-0.00985 -0.00929,-0.017261 -0.013194,-0.027118 a 1.3043414,1.3043414 0 0 1 -0.039758,-0.169461 0.4341242,0.4341242 0 0 0 0.040114,0.069544 0.14766129,0.14766129 0 0 0 0.1036428,0.059926 0.18014678,0.18014678 0 0 0 0.094592,-0.024766 0.59064517,0.59064517 0 0 0 0.1036567,-0.082322 c 0.017766,-0.013226 0.029148,-0.030413 0.046423,-0.043641 0.029143,-0.028936 0.052406,-0.065277 0.084988,-0.092232 0.027172,-0.028451 0.053855,-0.057397 0.086914,-0.080413 a 0.06989301,0.06989301 0 0 1 0.038426,-0.0097 c 0.021123,0.011888 0.017095,0.036976 0.024902,0.056201 0.00384,0.026593 0.00375,0.053664 0.00512,0.082709 a 0.46316425,0.46316425 0 0 1 -0.054376,0.2035804 c -0.00942,0.021131 -0.027215,0.040264 -0.03861,0.061388 -0.011379,0.017187 -0.02718,0.03042 -0.040531,0.047599 a 0.3194406,0.3194406 0 0 1 -0.1543814,0.090016 c -0.019231,0.00977 -0.04235,0.00575 -0.063037,0.00962 A 0.23133603,0.23133603 0 0 1 2.2553818,5.1661218 Z m 1.799605,-0.026571 c -4.2e-5,0.011813 -0.00402,0.02312 -0.00603,0.034925 A 1.0154175,1.0154175 0 0 1 2.6976117,5.6539926 1.0188629,1.0188629 0 0 1 2.4025593,5.439324 c 0.019175,0.00597 0.040326,0.00999 0.061484,0.012032 l 0.088124,-0.00559 a 0.4223113,0.4223113 0 0 0 0.2313085,-0.1301036 0.14716909,0.14716909 0 0 0 0.036572,-0.041707 c 0.029143,-0.028937 0.0465,-0.065298 0.067789,-0.1001685 0.036697,-0.076653 0.066037,-0.161209 0.06437,-0.2458746 0.00599,-0.021144 1.56e-4,-0.043806 -0.0037,-0.064985 A 0.34601963,0.34601963 0 0 0 2.8590921,4.6760592 c -0.01912,-0.021233 -0.042205,-0.035097 -0.065277,-0.052407 A 0.41443603,0.41443603 0 0 0 2.6266788,4.5635006 c -0.044271,-0.00804 -0.08667,0.011507 -0.1212041,0.034023 -0.027128,0.015655 -0.044436,0.038726 -0.067639,0.057839 -0.023229,0.026496 -0.046458,0.053486 -0.077043,0.072572 l -0.040403,0.011669 c -0.017213,-0.00399 -0.034426,-0.008 -0.048165,-0.01986 -0.013256,-0.0094 -0.019108,-0.024679 -0.026442,-0.038486 -0.013706,-0.021213 -0.019525,-0.045845 -0.026826,-0.069004 -0.011696,-0.03302 -0.011565,-0.069443 -0.018826,-0.1039222 1.243e-4,-0.034946 -0.00763,-0.069428 -0.00161,-0.1018922 a 0.25889946,0.25889946 0 0 1 0.00418,-0.067418 l 1.41e-5,-0.00394 A 1.0149253,1.0149253 0 0 1 3.1371367,3.7231511 c 0.2805546,9.99e-4 0.5493716,0.1191015 0.739121,0.3255198 a 0.25299301,0.25299301 0 0 0 -0.082621,-0.01949 l -0.08861,0.00362 a 0.44839812,0.44839812 0 0 0 -0.2308166,0.1301048 0.14421586,0.14421586 0 0 0 -0.037066,0.042198 c -0.028656,0.030415 -0.046013,0.066776 -0.067302,0.1016476 a 0.55077663,0.55077663 0 0 0 -0.06437,0.2458746 c -0.00599,0.021144 -1.577e-4,0.044299 0.0037,0.065477 0.00911,0.068941 0.041851,0.1345215 0.08941,0.1863726 0.019121,0.021233 0.044174,0.035103 0.065277,0.052406 a 0.40754517,0.40754517 0 0 0 0.1671364,0.060152 c 0.04427,0.00804 0.086674,-0.01298 0.12318,-0.035985 0.025157,-0.015169 0.042466,-0.038241 0.065661,-0.055385 0.02323,-0.026989 0.045968,-0.05398 0.077045,-0.073064 0.01331,-0.00586 0.027104,-0.00926 0.040407,-0.013146 0.017213,0.00399 0.034428,0.0075 0.048161,0.021336 0.013256,0.0094 0.019107,0.025171 0.026449,0.036518 0.013706,0.021213 0.019031,0.046336 0.026817,0.071466 0.00973,0.03252 0.011076,0.068948 0.018833,0.101954 -1.226e-4,0.034454 0.00763,0.068936 0.0016,0.103369 0.0019,0.021172 -0.00213,0.04429 -0.00417,0.065448 z m -0.07045,-0.6730978 a 0.18605323,0.18605323 0 0 0 -0.094599,0.026734 0.47989921,0.47989921 0 0 0 -0.1041493,0.08232 c -0.017275,0.013228 -0.028656,0.030415 -0.045933,0.044136 -0.029142,0.028444 -0.052398,0.062816 -0.08498,0.089771 a 0.38391936,0.38391936 0 0 1 -0.086914,0.080413 c -0.011344,0.00784 -0.025151,0.013692 -0.038426,0.0097 -0.02113,-0.00992 -0.017102,-0.035008 -0.024909,-0.054231 -0.00384,-0.026593 -0.00374,-0.055632 -0.00561,-0.082711 a 0.46365646,0.46365646 0 0 1 0.054868,-0.2035786 c 0.00943,-0.0231 0.026722,-0.040265 0.03861,-0.061388 0.011379,-0.017187 0.02718,-0.03042 0.040531,-0.047599 a 0.32780807,0.32780807 0 0 1 0.1538962,-0.091987 c 0.021191,-0.0073 0.042343,-0.00379 0.063521,-0.00715 0.057588,2.051e-4 0.1116487,0.023039 0.1518659,0.063543 0.030434,0.023242 0.051481,0.056295 0.072538,0.086886 0.013706,0.021214 0.019024,0.048304 0.036668,0.069532 0.015067,0.053705 0.024227,0.1078798 0.031903,0.1635263 A 0.39425566,0.39425566 0 0 0 4.0881662,4.5283441 0.15209114,0.15209114 0 0 0 3.9845305,4.4664494 Z"
     style="fill:url(#d);stroke:none;stroke-width:0.492204"
     id="path20" /></svg>
