<svg width="24" height="24" viewBox="0 0 24 24" fill="none" xmlns="http://www.w3.org/2000/svg">
<path fill-rule="evenodd" clip-rule="evenodd" d="M9.59604 1.11359C9.71588 1.11486 9.83043 1.0996 9.93969 1.06779C11.3755 0.973736 12.8111 0.977551 14.2467 1.07924C15.5484 1.18066 16.8085 1.46308 18.0269 1.9265C20.0525 2.76044 21.4386 4.20689 22.185 6.26585C22.6119 7.50549 22.8639 8.78021 22.9411 10.09C23.0478 11.7347 23.0096 13.3758 22.8265 15.0133C22.6895 16.1642 22.3916 17.271 21.933 18.3336C21.0824 20.1761 19.704 21.447 17.7978 22.1463C16.2531 22.6682 14.6647 22.943 13.0325 22.9706C11.1966 23.0661 9.37913 22.9287 7.57997 22.5585C4.26839 21.8208 2.22559 19.8018 1.45158 16.5017C1.12311 15.0161 0.974199 13.5124 1.00483 11.9906C0.968176 10.3724 1.14 8.77709 1.52031 7.20471C2.33171 4.11908 4.2905 2.20701 7.39669 1.46852C8.12048 1.29157 8.8536 1.17326 9.59604 1.11359Z" fill="url(#paint0_radial_313_57)"/>
<path fill-rule="evenodd" clip-rule="evenodd" d="M9.54799 22.8698C8.88956 22.7967 8.23356 22.693 7.57997 22.5585C6.15011 22.2399 4.95678 21.6826 4 20.8863L4 20.2704C4 19.7794 4.17695 19.3595 4.53086 19.0105C4.88476 18.6616 5.30224 18.4871 5.78328 18.4871H8.04541C8.27889 18.4871 8.46663 18.5201 8.60863 18.5862C8.75052 18.6522 8.8655 18.7513 8.95356 18.8834C9.30581 19.3897 9.74613 19.7805 10.2745 20.0557C10.8029 20.3309 11.3024 20.4686 11.9924 20.4685C12.6819 20.4684 13.1696 20.3309 13.709 20.0557C14.2484 19.7805 14.6997 19.3897 15.063 18.8834C15.14 18.7513 15.2506 18.6522 15.3947 18.5862C15.5389 18.5201 15.72 18.4871 15.9381 18.4871H18.2167C18.7077 18.4871 19.1276 18.6616 19.4766 19.0105C19.8255 19.3595 20 19.7794 20 20.2704V20.8974C19.3673 21.4235 18.6332 21.8398 17.7978 22.1463C16.7045 22.5157 15.5892 22.7613 14.4521 22.8831C14.452 22.8803 14.452 22.8775 14.452 22.8746V22.1173C14.452 21.9717 14.3011 21.8745 14.1661 21.9291C13.8702 22.0488 13.5665 22.1481 13.2549 22.227C12.8421 22.3316 12.4902 22.383 11.9941 22.3839C11.504 22.3848 11.1626 22.3344 10.7479 22.2353C10.4349 22.1605 10.1303 22.0638 9.83412 21.9451C9.69892 21.891 9.54799 21.9882 9.54799 22.1338V22.8698ZM11.9917 14.4582C11.3789 14.4582 10.8542 14.2394 10.4177 13.8019C9.98098 13.3643 9.76264 12.8385 9.76264 12.2245C9.76264 11.6111 9.98142 11.087 10.419 10.6522C10.8566 10.2174 11.3823 10 11.9964 10C12.6097 10 13.1338 10.2185 13.5686 10.6555C14.0034 11.0925 14.2208 11.6171 14.2208 12.2291C14.2208 12.8419 14.0023 13.3666 13.5653 13.8032C13.1283 14.2399 12.6038 14.4582 11.9917 14.4582ZM6.70795 16.902C6.09514 16.902 5.57044 16.6832 5.13387 16.2456C4.69719 15.808 4.47884 15.2823 4.47884 14.6682C4.47884 14.0549 4.69763 13.5308 5.13519 13.096C5.57276 12.6612 6.09855 12.4438 6.71257 12.4438C7.32593 12.4438 7.85002 12.6623 8.28483 13.0993C8.71964 13.5363 8.93705 14.0608 8.93705 14.6729C8.93705 15.2857 8.71854 15.8104 8.28153 16.2469C7.84451 16.6836 7.31999 16.902 6.70795 16.902ZM17.2755 16.902C16.6627 16.902 16.138 16.6832 15.7015 16.2456C15.2648 15.808 15.0464 15.2823 15.0464 14.6682C15.0464 14.0549 15.2652 13.5308 15.7028 13.096C16.1404 12.6612 16.6661 12.4438 17.2802 12.4438C17.8935 12.4438 18.4176 12.6623 18.8524 13.0993C19.2872 13.5363 19.5046 14.0608 19.5046 14.6729C19.5046 15.2857 19.2861 15.8104 18.8491 16.2469C18.4121 16.6836 17.8876 16.902 17.2755 16.902ZM11.0175 19.098C11.3258 19.2632 11.6498 19.3457 11.9898 19.3457C12.3416 19.3457 12.6748 19.2632 12.9894 19.098C13.304 18.9329 13.5604 18.7128 13.7585 18.4376C14.0227 18.0413 14.3392 17.7633 14.7079 17.6037C14.9381 17.5041 15.1865 17.4356 15.4531 17.3981C15.6323 17.373 15.7106 17.1536 15.5601 17.0533C15.1994 16.8128 14.7415 16.6027 14.1865 16.4231C13.4041 16.1699 12.6725 16.0433 11.9917 16.0433C11.322 16.0433 10.5987 16.1699 9.82175 16.4231C9.27247 16.6021 8.81556 16.8114 8.45104 17.0509C8.2987 17.151 8.3766 17.374 8.5569 17.4008C8.81972 17.4398 9.06477 17.5102 9.29205 17.612C9.66082 17.7771 9.9828 18.0523 10.258 18.4376C10.4561 18.7128 10.7093 18.9329 11.0175 19.098Z" fill="url(#paint1_linear_313_57)"/>
<path d="M11.0175 19.098C11.3257 19.2632 11.6498 19.3457 11.9897 19.3457C12.3416 19.3457 12.6748 19.2632 12.9894 19.098C13.304 18.9329 13.5603 18.7128 13.7585 18.4376C14.0227 18.0413 14.3392 17.7633 14.7079 17.6037C14.9381 17.5041 15.1865 17.4356 15.4531 17.3981C15.6323 17.373 15.7106 17.1536 15.5601 17.0533C15.1993 16.8128 14.7415 16.6027 14.1865 16.4231C13.404 16.1699 12.6725 16.0433 11.9917 16.0433C11.322 16.0433 10.5987 16.1699 9.82173 16.4231C9.27244 16.6021 8.81554 16.8114 8.45101 17.0509C8.29867 17.151 8.37657 17.374 8.55688 17.4008C8.8197 17.4398 9.06475 17.5102 9.29203 17.612C9.6608 17.7771 9.98278 18.0523 10.258 18.4376C10.4561 18.7128 10.7093 18.9329 11.0175 19.098Z" fill="#2A91C9"/>
<path d="M10.4176 13.8019C10.8542 14.2394 11.3789 14.4582 11.9917 14.4582C12.6038 14.4582 13.1283 14.2399 13.5653 13.8032C14.0023 13.3666 14.2208 12.8419 14.2208 12.2291C14.2208 11.6171 14.0034 11.0925 13.5686 10.6555C13.1338 10.2185 12.6097 10 11.9963 10C11.3823 10 10.8565 10.2174 10.419 10.6522C9.9814 11.087 9.76262 11.6111 9.76262 12.2245C9.76262 12.8385 9.98096 13.3643 10.4176 13.8019Z" fill="#2A91C9"/>
<path d="M14.4826 4.094C14.8972 3.776 15.4007 3.59502 15.9229 3.57618C16.0905 3.60439 16.2621 3.60913 16.4312 3.62895C16.622 3.67625 16.8028 3.75746 16.9649 3.86872C17.2163 4.07881 17.4209 4.33932 17.5654 4.6334C17.7857 5.05434 17.9038 5.52123 17.9101 5.99628C17.9004 6.15664 17.8787 6.31605 17.8454 6.47321C17.7726 6.32688 17.7176 6.17237 17.6815 6.01297C17.603 5.81112 17.4933 5.62283 17.3565 5.45495C17.1581 5.19424 16.8694 5.01716 16.5471 4.9585C16.4243 4.93406 16.2985 4.92859 16.174 4.94226C15.8235 4.97455 15.4898 5.10758 15.2131 5.3253C15.1208 5.40284 15.0159 5.4731 14.9384 5.55486C14.8445 5.65605 14.756 5.76196 14.6729 5.87218C14.4286 6.19849 14.2573 6.57355 14.1707 6.97189C14.1607 7.13396 14.135 7.2865 14.123 7.44996C14.1502 7.56486 14.1022 7.70675 14.2077 7.78656C14.2872 7.80546 14.3705 7.79834 14.4456 7.76625C14.6475 7.66208 14.8374 7.53625 15.0121 7.39099C15.2225 7.2678 15.3851 7.09004 15.589 6.9537C15.7009 6.89323 15.7765 6.81287 15.8915 6.7443C16.0993 6.59582 16.3227 6.47041 16.5577 6.37032C16.7376 6.29733 16.9349 6.27841 17.1254 6.31587C17.2378 6.35036 17.3419 6.40724 17.4317 6.48307C17.5214 6.5589 17.5949 6.65212 17.6476 6.7571C17.7953 7.06638 17.8824 7.4011 17.9041 7.74314C17.9144 7.91725 17.8711 8.08234 17.8636 8.27068C17.7484 8.85017 17.5486 9.40955 17.2705 9.93083C17.1717 10.1134 17.0506 10.283 16.9098 10.4355C16.8633 10.476 16.8297 10.5324 16.7718 10.5381C16.8035 10.4274 16.8419 10.3188 16.8869 10.2128C16.9278 10.0926 16.954 9.96795 16.9649 9.84149C17.0125 9.65099 17.0451 9.45707 17.0625 9.2615C17.0477 9.0625 17.0757 8.85519 17.0439 8.65505C17.0354 8.51048 17.006 8.36791 16.9565 8.23182C16.9362 8.14402 16.8964 8.06191 16.84 7.99159C16.773 7.91301 16.6842 7.85608 16.5848 7.82799C16.5064 7.83078 16.4284 7.84133 16.352 7.85948C16.1656 7.94532 15.9931 8.05866 15.8403 8.19571C15.7058 8.29555 15.5619 8.38217 15.4107 8.45437C15.1866 8.57041 14.9275 8.59928 14.6834 8.5354C14.3525 8.43949 14.0475 8.27034 13.7909 8.04049C13.669 7.93343 13.5604 7.81214 13.4673 7.67921C13.24 7.34401 13.1259 6.94488 13.1418 6.54021C13.1265 6.41521 13.1396 6.28839 13.1801 6.16915C13.2701 5.68614 13.4683 5.22977 13.7598 4.83426C13.9035 4.65096 14.0636 4.48115 14.2382 4.32696C14.2947 4.22679 14.3798 4.14569 14.4826 4.094Z" fill="white"/>
<path d="M9.48208 10.0028C9.0683 10.3217 8.56522 10.5034 8.04312 10.5226C7.87548 10.4943 7.7039 10.4896 7.53513 10.4681C7.34397 10.4224 7.16293 10.3416 7.00115 10.23C6.75081 10.0174 6.54834 9.75426 6.40707 9.4578C6.18844 9.03681 6.07035 8.57089 6.06206 8.0966C6.07182 7.93624 6.09346 7.77683 6.12679 7.61967C6.20058 7.76558 6.25564 7.92021 6.29069 8.07991C6.36871 8.28155 6.47781 8.46974 6.61402 8.63764C6.80953 8.89982 7.09589 9.07956 7.417 9.14163C7.53988 9.16637 7.66592 9.17129 7.79035 9.15619C8.14084 9.12529 8.47469 8.99275 8.75092 8.77484C8.84354 8.69562 8.94676 8.63541 9.02571 8.54527C9.11984 8.44436 9.20845 8.33843 9.29114 8.22795C9.5405 7.90037 9.7143 7.52168 9.80008 7.11903C9.8132 6.94886 9.83774 6.80303 9.84945 6.64124C9.82056 6.52606 9.86857 6.38417 9.76305 6.30436C9.68358 6.28629 9.60045 6.29338 9.52519 6.32467C9.32283 6.42885 9.13272 6.55528 8.9584 6.70161C8.75001 6.82341 8.58569 7.00088 8.38174 7.13722C8.26986 7.19769 8.19287 7.28643 8.07931 7.34662C7.87118 7.49466 7.64782 7.62003 7.41304 7.7206C7.23311 7.79349 7.03586 7.81241 6.84535 7.77505C6.7333 7.74214 6.6291 7.6868 6.53909 7.61239C6.44908 7.53798 6.37513 7.44606 6.32173 7.3422C6.17404 7.03292 6.087 6.6982 6.0653 6.35616C6.05495 6.18205 6.09824 6.01696 6.1058 5.82862C6.22184 5.24766 6.42192 4.68671 6.69972 4.16344C6.79847 3.98084 6.91966 3.8113 7.06046 3.65875C7.10691 3.6183 7.13718 3.56134 7.19672 3.55584C7.16487 3.6665 7.12644 3.77515 7.08163 3.88123C7.03927 4.00155 7.01241 4.12678 7.00169 4.25389C6.95413 4.44439 6.9215 4.63831 6.9041 4.83389C6.91721 5.0326 6.8909 5.24019 6.91909 5.44144C6.92814 5.58517 6.95707 5.72694 7.00508 5.86272C7.02662 5.95048 7.06692 6.03253 7.12321 6.10323C7.19033 6.18122 7.27949 6.23709 7.37895 6.26348C7.45749 6.26155 7.53558 6.25099 7.6118 6.23198C7.79823 6.14615 7.97071 6.03281 8.12347 5.89576C8.25769 5.79684 8.40089 5.71071 8.55118 5.63849C8.77561 5.52149 9.03554 5.49211 9.28044 5.55607C9.61156 5.65132 9.91672 5.82055 10.1729 6.05098C10.2948 6.15744 10.4036 6.27818 10.4968 6.41058C10.7263 6.74688 10.843 7.14741 10.8301 7.55435C10.8445 7.67935 10.8314 7.80598 10.7918 7.92541C10.6979 8.4106 10.4948 8.86804 10.1978 9.26306C10.0593 9.44802 9.90402 9.61981 9.73395 9.77626C9.67097 9.87225 9.58419 9.95029 9.48208 10.0028Z" fill="white"/>
<path d="M11.5605 4.04361C11.7396 4.01007 11.9238 4.01505 12.1008 4.05821C12.2778 4.10137 12.4436 4.18172 12.5872 4.29392C12.6876 4.39677 12.7612 4.52283 12.8012 4.6609C12.8214 4.7472 12.8214 4.83699 12.8012 4.92328C12.781 5.00957 12.7411 5.09004 12.6848 5.15843C12.5642 5.31512 12.4051 5.4379 12.223 5.5148C12.0409 5.5917 11.8419 5.6201 11.6456 5.59722C11.4623 5.58891 11.2841 5.53462 11.1274 5.43936C11.0295 5.38178 10.9453 5.30341 10.881 5.20978C10.8166 5.11615 10.7736 5.00955 10.7549 4.89748C10.7466 4.81383 10.7564 4.72938 10.7834 4.64981C10.8105 4.57023 10.8543 4.49735 10.9118 4.43607C11.0727 4.23029 11.3035 4.09065 11.5605 4.04361Z" fill="white"/>
<path d="M11.2432 6.07248C11.3339 5.96826 11.4502 5.8894 11.5806 5.84365C11.711 5.7979 11.851 5.78683 11.987 5.81152C12.126 5.84364 12.2573 5.90323 12.373 5.98678C12.4585 6.03752 12.5307 6.10786 12.5837 6.192C12.6367 6.27614 12.6689 6.37167 12.6777 6.47071C12.6395 6.69594 12.6247 6.92452 12.6336 7.15279C12.7045 7.62533 12.9042 8.06923 13.2107 8.43582C13.3447 8.66351 13.5516 8.83793 13.6856 9.06561C13.4282 9.01455 13.175 8.94428 12.928 8.8554C12.6244 8.75274 12.3418 8.59599 12.094 8.39272C11.9493 8.28671 11.8196 8.16167 11.7083 8.021C11.5235 7.81596 11.3748 7.58112 11.2684 7.32643C11.1377 7.03315 11.081 6.71227 11.1033 6.39196C11.1312 6.27822 11.1786 6.17015 11.2432 6.07248Z" fill="white"/>
<defs>
<radialGradient id="paint0_radial_313_57" cx="0" cy="0" r="1" gradientUnits="userSpaceOnUse" gradientTransform="translate(12 1) rotate(90) scale(11)">
<stop stop-color="#1D4775"/>
<stop offset="1" stop-color="#002A43"/>
</radialGradient>
<linearGradient id="paint1_linear_313_57" x1="4" y1="16" x2="20" y2="16" gradientUnits="userSpaceOnUse">
<stop stop-color="#2D85C5"/>
<stop offset="1" stop-color="#0BB1CB"/>
</linearGradient>
</defs>
</svg>
