<svg xmlns="http://www.w3.org/2000/svg" xml:space="preserve" width="40" height="40" viewBox="0 0 6.35 6.35"><defs><linearGradient id="b" x1="70.74" x2="304.39" y1="207.69" y2="456.44" gradientTransform="matrix(.00887 0 0 -.00887 6.879 14.863)" gradientUnits="userSpaceOnUse" spreadMethod="pad"><stop offset="0" style="stop-opacity:1;stop-color:#2d85c6"></stop><stop offset="1" style="stop-opacity:1;stop-color:#04bacc"></stop></linearGradient><linearGradient id="c" x1="146.39" x2="380.04" y1="136.63" y2="385.38" gradientTransform="matrix(.00887 0 0 .00887 6.73 10.165)" gradientUnits="userSpaceOnUse" spreadMethod="pad"><stop offset="0" style="stop-opacity:1;stop-color:#2d85c6"></stop><stop offset="1" style="stop-opacity:1;stop-color:#04bacc"></stop></linearGradient><linearGradient id="d" x1="127.32" x2="360.97" y1="154.54" y2="403.29" gradientTransform="matrix(.00887 0 0 .00887 6.73 10.165)" gradientUnits="userSpaceOnUse" spreadMethod="pad"><stop offset="0" style="stop-opacity:1;stop-color:#2d85c6"></stop><stop offset="1" style="stop-opacity:1;stop-color:#04bacc"></stop></linearGradient><radialGradient id="a" cx="0" cy="0" r="1" fx="0" fy="0" gradientTransform="matrix(0 16.5 -16.5 0 9 .75)" gradientUnits="userSpaceOnUse" spreadMethod="pad"><stop offset="0" style="stop-opacity:1;stop-color:#002a43"></stop><stop offset="1" style="stop-opacity:1;stop-color:#2c2d3d"></stop></radialGradient></defs><path d="M7.195.836c.09 0 .176-.012.258-.035a23.86 23.86 0 0 1 3.231.008 10.26 10.26 0 0 1 2.836.636c1.519.625 2.558 1.711 3.121 3.254.32.93.507 1.887.566 2.867a21.172 21.172 0 0 1-.086 3.692 8.866 8.866 0 0 1-.672 2.492c-.637 1.383-1.672 2.336-3.101 2.859a11.714 11.714 0 0 1-3.575.618 15.998 15.998 0 0 1-4.089-.309c-2.485-.551-4.016-2.066-4.594-4.543a14.244 14.244 0 0 1-.336-3.383 13.877 13.877 0 0 1 .387-3.59c.609-2.312 2.078-3.746 4.406-4.3A10.246 10.246 0 0 1 7.199.836Z" style="fill:url(#a);fill-rule:evenodd;stroke:none" transform="rotate(.204)scale(.35278)"></path><path d="M12.066 4.828c-.324 0-.636.12-.878.336a2.196 2.196 0 0 1-.302 1.59 1.326 1.326 0 1 0 1.18-1.926zm.817 2.77a1.728 1.728 0 0 1-.84.221 1.67 1.67 0 0 1-.82-.214c-.316.032-.633.11-.852.31-.586.527-.805 1.296-.766 2.24.543.59 1.406.767 2.437.732 1.031.035 1.896-.141 2.438-.731.04-.945-.167-1.721-.76-2.241-.223-.191-.529-.282-.837-.317z" style="fill:#0bb1cb;fill-opacity:1;fill-rule:nonzero;stroke:none" transform="rotate(.204)scale(.35278)"></path><path d="M5.993 4.828a1.326 1.326 0 1 0 1.195 1.896 2.186 2.186 0 0 1-.325-1.141c0-.13.012-.263.04-.392a1.323 1.323 0 0 0-.91-.363zm.8 2.77a1.695 1.695 0 0 1-.835.221c-.29 0-.57-.073-.82-.214-.318.032-.635.11-.858.31-.586.527-.8 1.296-.76 2.24.542.59 1.407.767 2.438.732 1.03.035 1.894-.141 2.437-.731.039-.945-.168-1.721-.766-2.241-.223-.191-.525-.282-.837-.317z" style="fill:#2d85c6;fill-opacity:1;fill-rule:nonzero;stroke:none" transform="rotate(.204)scale(.35278)"></path><path d="M10.129 7.277A2.347 2.347 0 0 1 8 7.293c-.512.035-1.047.141-1.406.465-.86.777-1.176 1.902-1.121 3.289.797.863 2.062 1.121 3.574 1.066 1.512.055 2.781-.203 3.574-1.066.059-1.387-.246-2.527-1.121-3.289-.359-.313-.863-.438-1.371-.481Z" style="fill:#002a43;fill-opacity:1;fill-rule:nonzero;stroke:none" transform="rotate(.204)scale(.35278)"></path><path d="M9.051 3.776a1.789 1.789 0 1 0 .001 3.578 1.789 1.789 0 0 0 0-3.578zm.98 3.724a2.193 2.193 0 0 1-1.937.016c-.464.027-.95.125-1.278.422-.781.703-1.066 1.726-1.015 2.984.722.785 1.875 1.019 3.246.973 1.375.046 2.523-.188 3.246-.973.051-1.258-.224-2.297-1.017-2.984-.328-.286-.784-.403-1.245-.438z" style="fill:#2a92c9;fill-opacity:1;fill-rule:nonzero;stroke:none" transform="rotate(.204)scale(.35278)"></path><path d="M11.562 12.438A2.56 2.56 0 0 1 9 15a2.56 2.56 0 0 1-2.562-2.562 2.562 2.562 0 1 1 5.124 0z" style="fill:#002a43;fill-opacity:1;fill-rule:nonzero;stroke:none" transform="rotate(.204)scale(.35278)"></path><path d="M11.23 12.453a2.225 2.225 0 1 1-4.45.003 2.225 2.225 0 0 1 4.45-.003z" style="fill:#16171c;fill-opacity:1;fill-rule:nonzero;stroke:#000;stroke-width:.0872017;stroke-linecap:butt;stroke-linejoin:miter;stroke-miterlimit:10;stroke-dasharray:none;stroke-opacity:1" transform="rotate(.204)scale(.35278)"></path><path d="M10.855 11.742a.434.434 0 0 0-.308-.129c-.043.004-.09-.004-.129.016a.659.659 0 0 0-.313.187c-.027.032-.058.063-.085.094-.024.043-.055.082-.075.125a.987.987 0 0 0-.109.418c.004.055.004.109.012.168.015.035.007.09.047.109.031.008.058-.007.082-.019.066-.047.121-.102.175-.164.063-.055.114-.125.172-.184.035-.027.059-.066.094-.09.062-.066.133-.121.207-.171a.377.377 0 0 1 .195-.051c.082.008.16.054.207.121.051.066.09.14.114.219a1.992 1.992 0 0 0-.063-.336c-.035-.039-.047-.094-.078-.137-.043-.063-.086-.129-.145-.176Z" style="fill:#2c2d3d;fill-opacity:1;fill-rule:nonzero;stroke:none" transform="rotate(.204)scale(.35278)"></path><path d="M7.195 12.148c.016.067.016.141.039.211a.498.498 0 0 0 .055.141c.016.023.027.055.055.074.027.028.062.035.097.043l.082-.023a.71.71 0 0 0 .157-.153c.043-.035.082-.082.132-.113.075-.047.161-.086.25-.07a.733.733 0 0 1 .336.121c.047.031.098.062.137.105a.713.713 0 0 1 .184.379c.008.043.019.086.008.129 0 .176-.055.344-.129.5-.043.07-.082.145-.137.207-.023.031-.043.063-.074.086a.883.883 0 0 1-.469.266l-.18.011a.457.457 0 0 1-.129-.027 2.059 2.059 0 0 0 3.348-.547l.012-.07c.004-.047.011-.09.008-.133.011-.07-.004-.14-.004-.211-.016-.07-.02-.14-.043-.211-.012-.047-.024-.097-.051-.14-.02-.028-.031-.059-.055-.075-.027-.027-.066-.035-.101-.043a1.507 1.507 0 0 0-.078.024.733.733 0 0 0-.161.148c-.043.039-.082.086-.132.118-.071.046-.161.085-.247.07-.121-.004-.234-.063-.339-.121-.047-.032-.098-.063-.133-.106a.654.654 0 0 1-.184-.379c-.008-.043-.019-.086-.008-.129a1.192 1.192 0 0 1 .125-.5c.043-.07.082-.148.137-.207.024-.031.047-.062.078-.085a.883.883 0 0 1 .469-.266l.18-.012c.058.004.113.02.168.039a2.049 2.049 0 0 0-1.504-.652c-.852 0-1.582.512-1.895 1.246 0 .004-.004.008-.004.012-.004.043-.011.09-.004.133-.011.07 0 .14.004.21zm2.121.461c.043.164.157.301.278.414.058.071.14.122.199.192-.09 0-.184-.012-.273-.031a.9.9 0 0 1-.317-.11c-.055-.035-.113-.062-.16-.109a.836.836 0 0 1-.191-.215.658.658 0 0 1-.114-.312.31.31 0 0 1 .032-.122c.046-.086.144-.132.242-.136.05.008.101.011.144.039.071.023.114.086.137.152.008.078.004.16.023.238zm-.761-.851a.39.39 0 0 1 .203-.168.326.326 0 0 1 .137-.028.348.348 0 0 1 .238.055c.035.031.078.063.094.113a.201.201 0 0 1-.012.176.37.37 0 0 1-.168.168.406.406 0 0 1-.168.047.393.393 0 0 1-.191-.023c-.075-.032-.141-.09-.161-.168-.023-.059 0-.118.028-.172z" style="fill:#2c2d3d;fill-opacity:1;fill-rule:nonzero;stroke:none" transform="rotate(.204)scale(.35278)"></path><path d="M7.137 13.051a.788.788 0 0 1-.082-.145c.015.117.043.235.082.348.008.016.015.035.027.051.043.062.086.129.148.175a.438.438 0 0 0 .309.129c.043-.004.086.004.129-.015a.66.66 0 0 0 .312-.188c.028-.031.059-.062.083-.094.023-.042.054-.082.074-.124a.992.992 0 0 0 .113-.418l-.012-.168c-.015-.036-.008-.09-.05-.11-.028-.008-.055.008-.082.02a.92.92 0 0 0-.172.164c-.067.054-.114.125-.176.183-.031.028-.055.067-.09.09a1.24 1.24 0 0 1-.211.172.376.376 0 0 1-.195.051.304.304 0 0 1-.207-.121Z" style="fill:#2c2d3d;fill-opacity:1;fill-rule:nonzero;stroke:none" transform="rotate(.204)scale(.35278)"></path><path d="M8.777 11.941a.344.344 0 0 0 .172-.046.35.35 0 0 0 .164-.165.205.205 0 0 0 .012-.179c-.016-.047-.059-.078-.094-.113a.342.342 0 0 0-.238-.055.338.338 0 0 0-.137.027.418.418 0 0 0-.203.172c-.023.051-.051.109-.027.168.019.078.086.137.16.168.062.02.125.035.191.023z" style="fill:url(#b);stroke:none" transform="rotate(.204)scale(.35278)"></path><path d="M9.492 12.848c-.121-.118-.234-.254-.277-.414-.02-.079-.016-.161-.024-.243a.224.224 0 0 0-.132-.152c-.047-.023-.098-.027-.149-.035a.278.278 0 0 0-.242.133.338.338 0 0 0-.031.121.68.68 0 0 0 .113.312.946.946 0 0 0 .195.219c.043.043.102.07.157.106.097.054.203.093.316.113a2.3 2.3 0 0 0 .277.031c-.058-.074-.144-.121-.203-.191Z" style="fill:url(#c);stroke:none" transform="rotate(.204)scale(.35278)"></path><path d="M9 10.188a2.247 2.247 0 1 0 0 4.496 2.247 2.247 0 1 0 0-4.496zm-1.789 3.117c-.063-.047-.106-.114-.149-.176-.007-.02-.019-.035-.027-.055a2.65 2.65 0 0 1-.082-.344.882.882 0 0 0 .082.141.3.3 0 0 0 .211.121.366.366 0 0 0 .192-.051 1.2 1.2 0 0 0 .21-.168c.036-.027.059-.062.094-.089.059-.059.106-.133.172-.188.055-.058.109-.117.176-.164a.142.142 0 0 1 .078-.02c.043.024.035.075.051.114.008.054.008.109.011.168a.941.941 0 0 1-.109.414c-.019.043-.055.082-.078.125-.023.035-.055.062-.082.097a.649.649 0 0 1-.313.184c-.039.02-.086.012-.128.02a.47.47 0 0 1-.309-.129Zm3.656-.067c0 .024-.008.047-.012.071a2.063 2.063 0 0 1-2.742.984 2.07 2.07 0 0 1-.601-.434c.039.012.082.02.125.024l.179-.012a.858.858 0 0 0 .469-.266.299.299 0 0 0 .074-.085c.059-.059.094-.133.137-.204.074-.156.133-.328.129-.5.012-.043 0-.089-.008-.132a.703.703 0 0 0-.183-.379c-.039-.043-.086-.071-.133-.106a.842.842 0 0 0-.34-.121c-.09-.016-.176.024-.246.07-.055.032-.09.079-.137.118-.047.054-.094.109-.156.148l-.082.024c-.035-.008-.07-.016-.098-.04-.027-.019-.039-.05-.054-.078-.028-.043-.04-.093-.055-.14-.024-.067-.024-.141-.039-.211 0-.071-.016-.141-.004-.207a.526.526 0 0 1 .008-.137v-.008a2.062 2.062 0 0 1 1.894-1.25c.57 0 1.117.238 1.504.656a.514.514 0 0 0-.168-.039l-.18.008a.911.911 0 0 0-.468.266.293.293 0 0 0-.075.086c-.058.062-.093.136-.136.207a1.119 1.119 0 0 0-.129.5c-.012.043 0 .09.008.133.019.14.086.273.183.378.039.043.09.071.133.106a.828.828 0 0 0 .34.121c.09.016.176-.027.25-.074.051-.031.086-.078.133-.113.047-.055.093-.11.156-.149.027-.012.055-.019.082-.027.035.008.07.015.098.043.027.019.039.051.054.074.028.043.039.094.055.145.02.066.023.14.039.207 0 .07.016.14.004.21.004.043-.004.09-.008.133zm-.148-1.367a.378.378 0 0 0-.192.055.975.975 0 0 0-.211.168c-.035.027-.058.062-.093.09-.059.058-.106.128-.172.183a.78.78 0 0 1-.176.164c-.023.016-.051.028-.078.02-.043-.02-.035-.071-.051-.11-.008-.054-.008-.113-.012-.168a.942.942 0 0 1 .11-.414c.019-.047.054-.082.078-.125.023-.035.055-.062.082-.097a.666.666 0 0 1 .312-.188c.043-.015.086-.008.129-.015.117 0 .227.046.309.128.062.047.105.114.148.176.028.043.039.098.075.141.031.109.05.219.066.332a.801.801 0 0 0-.113-.215.309.309 0 0 0-.211-.125z" style="fill:url(#d);stroke:none" transform="rotate(.204)scale(.35278)"></path></svg> 
